<!--?xml version="1.0" standalone="no"?-->              <svg id="sw-js-blob-svg" viewBox="0 0 100 100" xmlns="http://www.w3.org/2000/svg" version="1.1">                    <defs>                         <linearGradient id="sw-gradient" x1="0" x2="1" y1="1" y2="0">                            <stop id="stop1" stop-color="rgba(255, 255, 255, 1)" offset="0%"></stop>                            <stop id="stop2" stop-color="rgba(255, 255, 255, 1)" offset="100%"></stop>                        </linearGradient>                    </defs>                <path fill="url(#sw-gradient)" d="M15.7,-18.6C22.2,-17,30.4,-14.8,34,-9.7C37.6,-4.5,36.5,3.5,35,12.3C33.4,21.1,31.4,30.7,25.5,33.4C19.5,36,9.8,31.7,1.4,29.7C-6.9,27.8,-13.8,28.2,-17.3,24.7C-20.9,21.3,-21,14.1,-24.1,7.2C-27.3,0.3,-33.4,-6.3,-34.2,-13.3C-35,-20.4,-30.4,-27.9,-23.8,-29.5C-17.1,-31,-8.6,-26.6,-2,-23.9C4.6,-21.2,9.3,-20.2,15.7,-18.6Z" width="100%" height="100%" transform="translate(50 50)" stroke-width="0" style="transition: all 0.3s ease 0s;"></path>              </svg>